<?xml version="1.0" encoding="UTF-8" standalone="yes"?>
<!-- Created with qrencode 4.1.1 (https://fukuchi.org/works/qrencode/index.html) -->
<svg width="13.83cm" height="13.83cm" viewBox="0 0 49 49" preserveAspectRatio="none" version="1.1" xmlns="http://www.w3.org/2000/svg">
	<g id="QRcode">
		<rect x="0" y="0" width="49" height="49" fill="#ffffff"/>
		<path style="stroke:#000000" transform="translate(4,4.5)" d="M0,0h1M1,0h1M2,0h1M3,0h1M4,0h1M5,0h1M6,0h1M8,0h1M9,0h1M11,0h1M12,0h1M14,0h1M16,0h1M19,0h1M20,0h1M21,0h1M26,0h1M27,0h1M29,0h1M30,0h1M31,0h1M34,0h1M35,0h1M36,0h1M37,0h1M38,0h1M39,0h1M40,0h1M0,1h1M6,1h1M8,1h1M9,1h1M10,1h1M12,1h1M13,1h1M14,1h1M16,1h1M17,1h1M18,1h1M19,1h1M20,1h1M23,1h1M27,1h1M28,1h1M30,1h1M34,1h1M40,1h1M0,2h1M2,2h1M3,2h1M4,2h1M6,2h1M14,2h1M15,2h1M17,2h1M19,2h1M23,2h1M24,2h1M26,2h1M27,2h1M30,2h1M34,2h1M36,2h1M37,2h1M38,2h1M40,2h1M0,3h1M2,3h1M3,3h1M4,3h1M6,3h1M8,3h1M12,3h1M14,3h1M16,3h1M17,3h1M19,3h1M20,3h1M21,3h1M22,3h1M23,3h1M25,3h1M29,3h1M30,3h1M31,3h1M34,3h1M36,3h1M37,3h1M38,3h1M40,3h1M0,4h1M2,4h1M3,4h1M4,4h1M6,4h1M8,4h1M11,4h1M12,4h1M15,4h1M19,4h1M20,4h1M21,4h1M22,4h1M23,4h1M27,4h1M28,4h1M29,4h1M30,4h1M34,4h1M36,4h1M37,4h1M38,4h1M40,4h1M0,5h1M6,5h1M8,5h1M9,5h1M10,5h1M11,5h1M12,5h1M16,5h1M17,5h1M19,5h1M20,5h1M22,5h1M23,5h1M24,5h1M25,5h1M26,5h1M27,5h1M31,5h1M32,5h1M34,5h1M40,5h1M0,6h1M1,6h1M2,6h1M3,6h1M4,6h1M5,6h1M6,6h1M8,6h1M10,6h1M12,6h1M14,6h1M16,6h1M18,6h1M20,6h1M22,6h1M24,6h1M26,6h1M28,6h1M30,6h1M32,6h1M34,6h1M35,6h1M36,6h1M37,6h1M38,6h1M39,6h1M40,6h1M9,7h1M12,7h1M13,7h1M14,7h1M17,7h1M19,7h1M20,7h1M21,7h1M22,7h1M24,7h1M29,7h1M30,7h1M31,7h1M32,7h1M3,8h1M6,8h1M10,8h1M11,8h1M14,8h1M15,8h1M17,8h1M20,8h1M23,8h1M24,8h1M26,8h1M31,8h1M35,8h1M36,8h1M37,8h1M39,8h1M40,8h1M0,9h1M2,9h1M3,9h1M5,9h1M7,9h1M8,9h1M9,9h1M10,9h1M12,9h1M13,9h1M14,9h1M15,9h1M16,9h1M19,9h1M21,9h1M26,9h1M28,9h1M32,9h1M33,9h1M34,9h1M35,9h1M37,9h1M38,9h1M39,9h1M40,9h1M3,10h1M4,10h1M5,10h1M6,10h1M9,10h1M10,10h1M11,10h1M12,10h1M19,10h1M20,10h1M21,10h1M23,10h1M24,10h1M28,10h1M30,10h1M31,10h1M33,10h1M34,10h1M35,10h1M36,10h1M37,10h1M38,10h1M1,11h1M4,11h1M5,11h1M7,11h1M11,11h1M12,11h1M13,11h1M14,11h1M16,11h1M19,11h1M20,11h1M21,11h1M22,11h1M23,11h1M24,11h1M25,11h1M26,11h1M30,11h1M33,11h1M34,11h1M38,11h1M2,12h1M5,12h1M6,12h1M12,12h1M14,12h1M19,12h1M20,12h1M21,12h1M28,12h1M29,12h1M31,12h1M33,12h1M35,12h1M37,12h1M4,13h1M5,13h1M7,13h1M8,13h1M9,13h1M10,13h1M12,13h1M16,13h1M17,13h1M20,13h1M21,13h1M22,13h1M24,13h1M25,13h1M27,13h1M33,13h1M34,13h1M38,13h1M39,13h1M1,14h1M2,14h1M3,14h1M4,14h1M5,14h1M6,14h1M7,14h1M9,14h1M10,14h1M12,14h1M13,14h1M15,14h1M16,14h1M18,14h1M19,14h1M21,14h1M22,14h1M23,14h1M24,14h1M25,14h1M26,14h1M27,14h1M28,14h1M29,14h1M32,14h1M34,14h1M36,14h1M37,14h1M39,14h1M40,14h1M0,15h1M2,15h1M3,15h1M5,15h1M8,15h1M10,15h1M11,15h1M15,15h1M16,15h1M18,15h1M19,15h1M20,15h1M21,15h1M22,15h1M23,15h1M28,15h1M29,15h1M31,15h1M34,15h1M6,16h1M8,16h1M9,16h1M11,16h1M13,16h1M18,16h1M19,16h1M20,16h1M22,16h1M24,16h1M26,16h1M27,16h1M29,16h1M31,16h1M35,16h1M37,16h1M39,16h1M0,17h1M3,17h1M5,17h1M9,17h1M12,17h1M14,17h1M15,17h1M16,17h1M17,17h1M22,17h1M25,17h1M26,17h1M30,17h1M34,17h1M35,17h1M39,17h1M40,17h1M0,18h1M2,18h1M3,18h1M5,18h1M6,18h1M9,18h1M11,18h1M12,18h1M14,18h1M15,18h1M17,18h1M20,18h1M22,18h1M23,18h1M26,18h1M28,18h1M30,18h1M34,18h1M36,18h1M39,18h1M40,18h1M0,19h1M1,19h1M2,19h1M3,19h1M11,19h1M19,19h1M20,19h1M21,19h1M23,19h1M27,19h1M29,19h1M30,19h1M31,19h1M35,19h1M37,19h1M40,19h1M0,20h1M1,20h1M4,20h1M5,20h1M6,20h1M7,20h1M8,20h1M10,20h1M11,20h1M13,20h1M16,20h1M19,20h1M22,20h1M23,20h1M24,20h1M25,20h1M29,20h1M30,20h1M33,20h1M34,20h1M36,20h1M38,20h1M39,20h1M0,21h1M2,21h1M3,21h1M5,21h1M9,21h1M10,21h1M12,21h1M16,21h1M17,21h1M18,21h1M19,21h1M20,21h1M21,21h1M22,21h1M24,21h1M25,21h1M26,21h1M28,21h1M30,21h1M32,21h1M34,21h1M35,21h1M38,21h1M39,21h1M40,21h1M0,22h1M2,22h1M6,22h1M9,22h1M12,22h1M15,22h1M16,22h1M18,22h1M23,22h1M26,22h1M28,22h1M29,22h1M31,22h1M33,22h1M34,22h1M35,22h1M36,22h1M39,22h1M3,23h1M4,23h1M8,23h1M10,23h1M14,23h1M15,23h1M17,23h1M18,23h1M19,23h1M20,23h1M22,23h1M23,23h1M25,23h1M27,23h1M28,23h1M33,23h1M34,23h1M37,23h1M38,23h1M39,23h1M40,23h1M0,24h1M3,24h1M6,24h1M7,24h1M9,24h1M10,24h1M11,24h1M14,24h1M15,24h1M16,24h1M17,24h1M20,24h1M21,24h1M22,24h1M24,24h1M25,24h1M26,24h1M29,24h1M31,24h1M32,24h1M33,24h1M34,24h1M38,24h1M39,24h1M0,25h1M1,25h1M2,25h1M4,25h1M5,25h1M7,25h1M9,25h1M12,25h1M13,25h1M15,25h1M18,25h1M22,25h1M23,25h1M25,25h1M26,25h1M29,25h1M30,25h1M31,25h1M33,25h1M37,25h1M39,25h1M0,26h1M3,26h1M4,26h1M6,26h1M8,26h1M9,26h1M10,26h1M13,26h1M14,26h1M15,26h1M17,26h1M19,26h1M20,26h1M23,26h1M24,26h1M29,26h1M30,26h1M32,26h1M34,26h1M36,26h1M39,26h1M40,26h1M3,27h1M7,27h1M11,27h1M12,27h1M14,27h1M16,27h1M17,27h1M19,27h1M20,27h1M23,27h1M24,27h1M25,27h1M26,27h1M27,27h1M28,27h1M29,27h1M30,27h1M32,27h1M35,27h1M36,27h1M39,27h1M40,27h1M0,28h1M2,28h1M3,28h1M4,28h1M6,28h1M7,28h1M9,28h1M13,28h1M14,28h1M15,28h1M17,28h1M18,28h1M19,28h1M20,28h1M21,28h1M22,28h1M28,28h1M29,28h1M30,28h1M32,28h1M39,28h1M2,29h1M3,29h1M4,29h1M8,29h1M12,29h1M14,29h1M16,29h1M17,29h1M19,29h1M23,29h1M25,29h1M27,29h1M31,29h1M35,29h1M39,29h1M40,29h1M0,30h1M4,30h1M6,30h1M8,30h1M9,30h1M10,30h1M13,30h1M16,30h1M17,30h1M19,30h1M21,30h1M22,30h1M23,30h1M24,30h1M31,30h1M32,30h1M35,30h1M36,30h1M39,30h1M40,30h1M2,31h1M4,31h1M8,31h1M9,31h1M12,31h1M13,31h1M17,31h1M18,31h1M20,31h1M23,31h1M25,31h1M26,31h1M27,31h1M28,31h1M29,31h1M30,31h1M31,31h1M32,31h1M33,31h1M36,31h1M0,32h1M2,32h1M3,32h1M5,32h1M6,32h1M14,32h1M16,32h1M17,32h1M18,32h1M19,32h1M21,32h1M22,32h1M23,32h1M24,32h1M25,32h1M28,32h1M31,32h1M32,32h1M33,32h1M34,32h1M35,32h1M36,32h1M38,32h1M39,32h1M40,32h1M8,33h1M9,33h1M11,33h1M14,33h1M17,33h1M18,33h1M19,33h1M21,33h1M22,33h1M24,33h1M26,33h1M28,33h1M32,33h1M36,33h1M37,33h1M38,33h1M39,33h1M40,33h1M0,34h1M1,34h1M2,34h1M3,34h1M4,34h1M5,34h1M6,34h1M10,34h1M11,34h1M12,34h1M13,34h1M14,34h1M15,34h1M18,34h1M19,34h1M20,34h1M22,34h1M24,34h1M25,34h1M29,34h1M32,34h1M34,34h1M36,34h1M38,34h1M0,35h1M6,35h1M9,35h1M10,35h1M11,35h1M12,35h1M15,35h1M19,35h1M22,35h1M28,35h1M29,35h1M32,35h1M36,35h1M38,35h1M39,35h1M0,36h1M2,36h1M3,36h1M4,36h1M6,36h1M10,36h1M11,36h1M14,36h1M15,36h1M16,36h1M17,36h1M18,36h1M22,36h1M24,36h1M26,36h1M27,36h1M28,36h1M32,36h1M33,36h1M34,36h1M35,36h1M36,36h1M37,36h1M39,36h1M40,36h1M0,37h1M2,37h1M3,37h1M4,37h1M6,37h1M8,37h1M9,37h1M14,37h1M16,37h1M18,37h1M19,37h1M25,37h1M26,37h1M29,37h1M31,37h1M33,37h1M34,37h1M36,37h1M37,37h1M38,37h1M39,37h1M0,38h1M2,38h1M3,38h1M4,38h1M6,38h1M9,38h1M10,38h1M11,38h1M13,38h1M14,38h1M15,38h1M17,38h1M20,38h1M22,38h1M23,38h1M24,38h1M26,38h1M28,38h1M36,38h1M38,38h1M40,38h1M0,39h1M6,39h1M9,39h1M10,39h1M11,39h1M17,39h1M19,39h1M20,39h1M22,39h1M23,39h1M24,39h1M26,39h1M28,39h1M29,39h1M31,39h1M32,39h1M35,39h1M38,39h1M39,39h1M0,40h1M1,40h1M2,40h1M3,40h1M4,40h1M5,40h1M6,40h1M11,40h1M12,40h1M15,40h1M19,40h1M21,40h1M23,40h1M24,40h1M25,40h1M26,40h1M27,40h1M29,40h1M32,40h1M35,40h1M36,40h1M37,40h1M38,40h1M39,40h1"/>
	</g>
</svg>
